<?xml version="1.0" encoding="utf-8"?>
<!-- Svg Vector Icons : http://www.onlinewebfonts.com/icon -->
<!DOCTYPE svg PUBLIC "-//W3C//DTD SVG 1.1//EN" "http://www.w3.org/Graphics/SVG/1.1/DTD/svg11.dtd">
<svg version="1.1" xmlns="http://www.w3.org/2000/svg" xmlns:xlink="http://www.w3.org/1999/xlink" x="0px" y="0px" viewBox="0 0 1000 1000" enable-background="new 0 0 1000 1000" xml:space="preserve">
<metadata> Svg Vector Icons : http://www.onlinewebfonts.com/icon </metadata>
<g><path d="M500,990c-17.2,0-34.5-4.4-49.9-13.3l-338-195.2c-30.8-17.8-49.9-50.9-49.9-86.4V304.8c0-35.5,19.1-68.6,49.9-86.4l338-195.2c30.8-17.8,69-17.8,99.7,0l338,195.2c30.8,17.8,49.9,50.9,49.9,86.4v390.3c0,35.5-19.1,68.6-49.9,86.4L848,804.6c-4.4,2.5-9.9,1-12.5-3.3c-2.5-4.4-1-9.9,3.3-12.5l39.9-23.1c25.1-14.5,40.7-41.6,40.7-70.6V304.8c0-29-15.6-56.1-40.7-70.6l-338-195.2c-25.1-14.5-56.4-14.5-81.5,0l-338,195.2c-25.1,14.5-40.7,41.6-40.7,70.6v390.3c0,29,15.6,56.1,40.7,70.6l338,195.2c25.1,14.5,56.4,14.5,81.5,0l89.6-51.8c4.4-2.5,9.9-1,12.4,3.3c2.5,4.4,1,9.9-3.3,12.5l-89.6,51.7C534.5,985.6,517.2,990,500,990z"/><path d="M685.7,885.8c-73.4,0-133.1-59.7-133.1-133.1c0-73.4,59.7-133.1,133.1-133.1c73.4,0,133.1,59.7,133.1,133.1C818.7,826.1,759,885.8,685.7,885.8z M685.7,637.9c-63.3,0-114.8,51.5-114.8,114.8c0,63.3,51.5,114.8,114.8,114.8c63.3,0,114.8-51.5,114.8-114.8C800.5,689.4,749,637.9,685.7,637.9z"/><path d="M482.3,718.1H312c-5,0-9.1-4.1-9.1-9.1V298.9c0-5,4.1-9.1,9.1-9.1h291.6c2.4,0,4.7,1,6.4,2.7l84.9,84.9c1.7,1.7,2.7,4,2.7,6.4v155.7c0,5-4.1,9.1-9.1,9.1s-9.1-4.1-9.1-9.1V387.6L599.9,308H321.1v391.9h161.1c5,0,9.1,4.1,9.1,9.1S487.3,718.1,482.3,718.1z"/><path d="M551.7,395.1H371.3c-5,0-9.1-4.1-9.1-9.1c0-5,4.1-9.1,9.1-9.1h180.5c5,0,9.1,4.1,9.1,9.1C560.8,391.1,556.7,395.1,551.7,395.1z"/><path d="M524.4,632.6H371.3c-5,0-9.1-4.1-9.1-9.1s4.1-9.1,9.1-9.1h153.1c5,0,9.1,4.1,9.1,9.1C533.5,628.6,529.4,632.6,524.4,632.6z"/><path d="M633,457.3H371.3c-5,0-9.1-4.1-9.1-9.1c0-5,4.1-9.1,9.1-9.1H633c5,0,9.1,4.1,9.1,9.1C642.1,453.2,638,457.3,633,457.3z"/><path d="M633,516.5H371.3c-5,0-9.1-4.1-9.1-9.1c0-5,4.1-9.1,9.1-9.1H633c5,0,9.1,4.1,9.1,9.1C642.1,512.4,638,516.5,633,516.5z"/><path d="M633,573.9H371.3c-5,0-9.1-4.1-9.1-9.1c0-5,4.1-9.1,9.1-9.1H633c5,0,9.1,4.1,9.1,9.1C642.1,569.9,638,573.9,633,573.9z"/><path d="M688.4,402.4h-92c-5,0-9.1-4.1-9.1-9.1v-94.4c0-5,4.1-9.1,9.1-9.1s9.1,4.1,9.1,9.1v85.3h82.9c5,0,9.1,4.1,9.1,9.1C697.5,398.3,693.4,402.4,688.4,402.4z"/><path d="M790.8,868.8c-2.3,0-4.7-0.9-6.4-2.7l-15.2-15.2c-3.6-3.6-3.6-9.3,0-12.9c3.6-3.6,9.3-3.6,12.9,0l15.2,15.2c3.6,3.6,3.6,9.3,0,12.9C795.5,867.9,793.1,868.8,790.8,868.8z"/><path d="M879.5,973.9c-6.5,0-13.1-2.5-18-7.5l-75.9-76c-10-10-10-26.1,0-36.1c10-10,26.1-10,36.1,0l75.9,76c10,10,10,26.1,0,36.1C892.6,971.4,886,973.9,879.5,973.9z"/><path d="M610.9,771.6c-2.3,0-4.7-0.9-6.4-2.7c-3.6-3.6-3.6-9.3,0-12.9l85.7-85.7c3.6-3.6,9.3-3.6,12.9,0c3.6,3.6,3.6,9.3,0,12.9l-85.7,85.7C615.6,770.7,613.3,771.6,610.9,771.6z"/><path d="M684.9,843.1c50.3,0,91.1-40.8,91.1-91.1c0-29.7-14.2-56.1-36.2-72.7L612.2,806.9C628.8,828.9,655.2,843.1,684.9,843.1z"/></g>
</svg>